<svg width="448" height="167" viewBox="0 0 448 167" fill="none" xmlns="http://www.w3.org/2000/svg">
<g filter="url(#filter0_d_8091_8141)">
<g clip-path="url(#clip0_8091_8141)">
<rect x="12" y="7" width="424" height="130" rx="40" fill="#0046E2"/>
<mask id="mask0_8091_8141" style="mask-type:alpha" maskUnits="userSpaceOnUse" x="12" y="7" width="424" height="125">
<rect x="12" y="7" width="424" height="125" rx="40" fill="#4318FF"/>
</mask>
<g mask="url(#mask0_8091_8141)">
<path opacity="0.1" d="M242 171L363.689 -41H430.384L436 171H242Z" fill="url(#paint0_linear_8091_8141)"/>
</g>
<g clip-path="url(#clip1_8091_8141)">
<path d="M389 41C387.9 41 387 41.9 387 43C387 44.1 387.9 45 389 45C390.1 45 391 44.1 391 43C391 41.9 390.1 41 389 41ZM401 41C399.9 41 399 41.9 399 43C399 44.1 399.9 45 401 45C402.1 45 403 44.1 403 43C403 41.9 402.1 41 401 41ZM395 41C393.9 41 393 41.9 393 43C393 44.1 393.9 45 395 45C396.1 45 397 44.1 397 43C397 41.9 396.1 41 395 41Z" fill="white"/>
</g>
<path d="M48.1009 85.358V80.858H49.5199C50.2273 80.858 50.7983 80.7727 51.233 80.6023C51.6676 80.4233 52.0128 80.1634 52.2685 79.8224C52.5327 79.473 52.7543 79.0384 52.9332 78.5185L53.2528 77.6619L43.7415 58.8182H49.4688L55.6307 71.7045L60.7827 58.8182H66.4332L57.4077 79.8608C56.973 80.8324 56.4574 81.7358 55.8608 82.571C55.2727 83.4062 54.5185 84.0795 53.598 84.5909C52.6776 85.1023 51.5014 85.358 50.0696 85.358H48.1009ZM67.1642 85V65.3636H75.5378C77.9583 65.3636 79.8716 65.8239 81.2779 66.7443C82.6841 67.6648 83.3872 68.973 83.3872 70.669C83.3872 71.7344 82.9909 72.6207 82.1983 73.3281C81.4057 74.0355 80.3063 74.5128 78.9 74.7599C80.0762 74.8452 81.0776 75.1136 81.9043 75.5653C82.7395 76.0085 83.3745 76.5838 83.8091 77.2912C84.2523 77.9986 84.4739 78.7827 84.4739 79.6435C84.4739 80.7599 84.1756 81.7187 83.579 82.5199C82.9909 83.321 82.1259 83.9347 80.9838 84.3608C79.8503 84.7869 78.4654 85 76.829 85H67.1642ZM72.2395 80.9219H76.829C77.5875 80.9219 78.1799 80.7429 78.606 80.3849C79.0407 80.0185 79.258 79.5199 79.258 78.8892C79.258 78.1903 79.0407 77.6406 78.606 77.2401C78.1799 76.8395 77.5875 76.6392 76.829 76.6392H72.2395V80.9219ZM72.2395 73.4432H75.6529C76.1983 73.4432 76.6628 73.3665 77.0463 73.2131C77.4384 73.0511 77.7367 72.821 77.9412 72.5227C78.1543 72.2244 78.2608 71.8707 78.2608 71.4616C78.2608 70.8565 78.0179 70.3835 77.5321 70.0426C77.0463 69.7017 76.3816 69.5312 75.5378 69.5312H72.2395V73.4432ZM96.1353 85.3835C94.1154 85.3835 92.3768 84.9744 90.9194 84.1562C89.4705 83.3295 88.354 82.1619 87.5699 80.6534C86.7859 79.1364 86.3938 77.3423 86.3938 75.2713C86.3938 73.2514 86.7859 71.4787 87.5699 69.9531C88.354 68.4276 89.4577 67.2386 90.881 66.3864C92.3128 65.5341 93.9918 65.108 95.918 65.108C97.2134 65.108 98.4194 65.3168 99.5359 65.7344C100.661 66.1435 101.641 66.7614 102.476 67.5881C103.32 68.4148 103.976 69.4545 104.445 70.7074C104.914 71.9517 105.148 73.4091 105.148 75.0795V76.5753H88.5671V73.2003H100.022C100.022 72.4162 99.8512 71.7216 99.5103 71.1165C99.1694 70.5114 98.6964 70.0384 98.0913 69.6974C97.4947 69.348 96.8001 69.1733 96.0074 69.1733C95.1807 69.1733 94.4478 69.3651 93.8086 69.7486C93.1779 70.1236 92.6836 70.6307 92.3256 71.2699C91.9677 71.9006 91.7844 72.6037 91.7759 73.3793V76.5881C91.7759 77.5597 91.9549 78.3991 92.3128 79.1065C92.6793 79.8139 93.1949 80.3594 93.8597 80.7429C94.5245 81.1264 95.3128 81.3182 96.2248 81.3182C96.8299 81.3182 97.3839 81.233 97.8867 81.0625C98.3895 80.892 98.8199 80.6364 99.1779 80.2955C99.5359 79.9545 99.8086 79.5369 99.9961 79.0426L105.033 79.375C104.777 80.5852 104.253 81.642 103.461 82.5455C102.676 83.4403 101.662 84.1392 100.418 84.642C99.1822 85.1364 97.7546 85.3835 96.1353 85.3835ZM107.982 92.3636V65.3636H113.351V68.6619H113.594C113.833 68.1335 114.178 67.5966 114.63 67.0511C115.09 66.4972 115.687 66.0369 116.42 65.6705C117.161 65.2955 118.081 65.108 119.181 65.108C120.613 65.108 121.934 65.483 123.144 66.233C124.354 66.9744 125.322 68.0952 126.046 69.5952C126.77 71.0866 127.133 72.9574 127.133 75.2074C127.133 77.3977 126.779 79.2472 126.072 80.7557C125.373 82.2557 124.418 83.3935 123.208 84.169C122.006 84.9361 120.66 85.3196 119.168 85.3196C118.111 85.3196 117.212 85.1449 116.471 84.7955C115.738 84.446 115.137 84.0071 114.668 83.4787C114.199 82.9418 113.841 82.4006 113.594 81.8551H113.428V92.3636H107.982ZM113.313 75.1818C113.313 76.3494 113.475 77.3679 113.799 78.2372C114.123 79.1065 114.591 79.7841 115.205 80.2699C115.819 80.7472 116.564 80.9858 117.442 80.9858C118.329 80.9858 119.079 80.7429 119.692 80.2571C120.306 79.7628 120.77 79.081 121.086 78.2116C121.41 77.3338 121.572 76.3239 121.572 75.1818C121.572 74.0483 121.414 73.0511 121.099 72.1903C120.783 71.3295 120.319 70.6562 119.705 70.1705C119.091 69.6847 118.337 69.4418 117.442 69.4418C116.556 69.4418 115.806 69.6761 115.192 70.1449C114.587 70.6136 114.123 71.2784 113.799 72.1392C113.475 73 113.313 74.0142 113.313 75.1818ZM138.992 85.3835C136.972 85.3835 135.234 84.9744 133.776 84.1562C132.327 83.3295 131.211 82.1619 130.427 80.6534C129.643 79.1364 129.251 77.3423 129.251 75.2713C129.251 73.2514 129.643 71.4787 130.427 69.9531C131.211 68.4276 132.315 67.2386 133.738 66.3864C135.17 65.5341 136.849 65.108 138.775 65.108C140.07 65.108 141.276 65.3168 142.393 65.7344C143.518 66.1435 144.498 66.7614 145.333 67.5881C146.177 68.4148 146.833 69.4545 147.302 70.7074C147.771 71.9517 148.005 73.4091 148.005 75.0795V76.5753H131.424V73.2003H142.879C142.879 72.4162 142.708 71.7216 142.367 71.1165C142.026 70.5114 141.553 70.0384 140.948 69.6974C140.352 69.348 139.657 69.1733 138.864 69.1733C138.038 69.1733 137.305 69.3651 136.665 69.7486C136.035 70.1236 135.54 70.6307 135.183 71.2699C134.825 71.9006 134.641 72.6037 134.633 73.3793V76.5881C134.633 77.5597 134.812 78.3991 135.17 79.1065C135.536 79.8139 136.052 80.3594 136.717 80.7429C137.381 81.1264 138.17 81.3182 139.082 81.3182C139.687 81.3182 140.241 81.233 140.744 81.0625C141.246 80.892 141.677 80.6364 142.035 80.2955C142.393 79.9545 142.665 79.5369 142.853 79.0426L147.89 79.375C147.634 80.5852 147.11 81.642 146.317 82.5455C145.533 83.4403 144.519 84.1392 143.275 84.642C142.039 85.1364 140.611 85.3835 138.992 85.3835ZM164.505 73.0085V77.2912H154.252V73.0085H164.505ZM156.042 65.3636V85H150.839V65.3636H156.042ZM167.918 65.3636V85H162.754V65.3636H167.918ZM185.09 73.0085V77.2912H174.837V73.0085H185.09ZM176.627 65.3636V85H171.424V65.3636H176.627ZM188.503 65.3636V85H183.338V65.3636H188.503ZM200.88 85.3835C198.895 85.3835 197.177 84.9616 195.728 84.1179C194.288 83.2656 193.176 82.081 192.392 80.5639C191.608 79.0384 191.216 77.2699 191.216 75.2585C191.216 73.2301 191.608 71.4574 192.392 69.9403C193.176 68.4148 194.288 67.2301 195.728 66.3864C197.177 65.5341 198.895 65.108 200.88 65.108C202.866 65.108 204.579 65.5341 206.02 66.3864C207.469 67.2301 208.585 68.4148 209.369 69.9403C210.153 71.4574 210.545 73.2301 210.545 75.2585C210.545 77.2699 210.153 79.0384 209.369 80.5639C208.585 82.081 207.469 83.2656 206.02 84.1179C204.579 84.9616 202.866 85.3835 200.88 85.3835ZM200.906 81.1648C201.809 81.1648 202.564 80.9091 203.169 80.3977C203.774 79.8778 204.23 79.1705 204.537 78.2756C204.852 77.3807 205.01 76.3622 205.01 75.2202C205.01 74.0781 204.852 73.0597 204.537 72.1648C204.23 71.2699 203.774 70.5625 203.169 70.0426C202.564 69.5227 201.809 69.2628 200.906 69.2628C199.994 69.2628 199.227 69.5227 198.605 70.0426C197.991 70.5625 197.527 71.2699 197.211 72.1648C196.905 73.0597 196.751 74.0781 196.751 75.2202C196.751 76.3622 196.905 77.3807 197.211 78.2756C197.527 79.1705 197.991 79.8778 198.605 80.3977C199.227 80.9091 199.994 81.1648 200.906 81.1648ZM222.239 85.3835C220.227 85.3835 218.497 84.9574 217.048 84.1051C215.608 83.2443 214.5 82.0511 213.724 80.5256C212.957 79 212.574 77.2443 212.574 75.2585C212.574 73.2472 212.962 71.483 213.737 69.9659C214.521 68.4403 215.633 67.2514 217.074 66.3991C218.514 65.5384 220.227 65.108 222.213 65.108C223.926 65.108 225.426 65.419 226.713 66.0412C228 66.6634 229.018 67.5369 229.768 68.6619C230.518 69.7869 230.932 71.108 231.008 72.625H225.869C225.724 71.6449 225.341 70.8565 224.719 70.2599C224.105 69.6548 223.3 69.3523 222.303 69.3523C221.459 69.3523 220.722 69.5824 220.091 70.0426C219.469 70.4943 218.983 71.1548 218.633 72.0241C218.284 72.8935 218.109 73.946 218.109 75.1818C218.109 76.4347 218.28 77.5 218.621 78.3778C218.97 79.2557 219.46 79.9247 220.091 80.3849C220.722 80.8452 221.459 81.0753 222.303 81.0753C222.925 81.0753 223.483 80.9474 223.977 80.6918C224.48 80.4361 224.893 80.0653 225.217 79.5795C225.55 79.0852 225.767 78.4929 225.869 77.8026H231.008C230.923 79.3026 230.514 80.6236 229.781 81.7656C229.057 82.8991 228.055 83.7855 226.777 84.4247C225.499 85.0639 223.986 85.3835 222.239 85.3835ZM232.436 69.6463V65.3636H250.232V69.6463H243.904V85H238.713V69.6463H232.436ZM256.226 71.3977H262.094C264.694 71.3977 266.722 72.0199 268.18 73.2642C269.637 74.5 270.366 76.1534 270.366 78.2244C270.366 79.571 270.038 80.7557 269.381 81.7784C268.725 82.7926 267.779 83.5852 266.543 84.1562C265.307 84.7188 263.825 85 262.094 85H252.813V65.3636H258.016V80.7173H262.094C263.006 80.7173 263.756 80.4872 264.344 80.027C264.932 79.5668 265.231 78.9787 265.239 78.2628C265.231 77.5043 264.932 76.8864 264.344 76.4091C263.756 75.9233 263.006 75.6804 262.094 75.6804H256.226V71.3977Z" fill="white"/>
<path d="M344 75.2C344.702 78.8 347.5 85.5 354 85C360.5 84.5 361.279 68 372.657 68C384.036 68 384.036 87.0286 403 70.5714" stroke="white" stroke-width="2" stroke-linecap="round" stroke-linejoin="round"/>
</g>
</g>
<defs>
<filter id="filter0_d_8091_8141" x="-16" y="-2" width="480" height="169" filterUnits="userSpaceOnUse" color-interpolation-filters="sRGB">
<feFlood flood-opacity="0" result="BackgroundImageFix"/>
<feColorMatrix in="SourceAlpha" type="matrix" values="0 0 0 0 0 0 0 0 0 0 0 0 0 0 0 0 0 0 127 0" result="hardAlpha"/>
<feOffset dy="18"/>
<feGaussianBlur stdDeviation="20"/>
<feColorMatrix type="matrix" values="0 0 0 0 0.439216 0 0 0 0 0.564706 0 0 0 0 0.690196 0 0 0 0.12 0"/>
<feBlend mode="normal" in2="BackgroundImageFix" result="effect1_dropShadow_8091_8141"/>
<feBlend mode="normal" in="SourceGraphic" in2="effect1_dropShadow_8091_8141" result="shape"/>
</filter>
<linearGradient id="paint0_linear_8091_8141" x1="368.954" y1="-71.7796" x2="342.438" y2="154.643" gradientUnits="userSpaceOnUse">
<stop stop-color="white"/>
<stop offset="0.0001" stop-color="white"/>
<stop offset="1" stop-color="white" stop-opacity="0"/>
</linearGradient>
<clipPath id="clip0_8091_8141">
<rect x="24" y="20" width="400" height="89" rx="17" fill="white"/>
</clipPath>
<clipPath id="clip1_8091_8141">
<rect width="24" height="24" fill="white" transform="translate(383 31)"/>
</clipPath>
</defs>
</svg>
