<svg width="28" height="27" viewBox="0 0 28 27" fill="none" xmlns="http://www.w3.org/2000/svg">
<path d="M20.6555 6.7182C21.7288 7.82027 22.5111 9.17205 22.9319 10.6518H25.8125V15.716H22.9319C22.5117 17.1969 21.7293 18.5499 20.6555 19.6529L22.0983 22.1504L17.7142 24.6816L16.2747 22.1841C14.7822 22.5606 13.2195 22.5606 11.7269 22.1841L10.2858 24.6816L5.90169 22.1504L7.3445 19.6529C6.27068 18.5499 5.48834 17.1969 5.06806 15.716H2.1875V10.6535H5.06806C5.48834 9.17253 6.27068 7.81954 7.3445 6.71652L5.9 4.2207L10.2824 1.68945H10.2875L11.7286 4.18358C13.2212 3.80713 14.7839 3.80713 16.2764 4.18358L17.7125 1.68945H17.7159L22.1 4.2207L20.6572 6.7182H20.6555ZM19.0625 13.1847C19.0625 11.842 18.5291 10.5544 17.5797 9.60497C16.6303 8.65557 15.3427 8.1222 14 8.1222C12.6573 8.1222 11.3697 8.65557 10.4203 9.60497C9.47087 10.5544 8.9375 11.842 8.9375 13.1847C8.9375 14.5274 9.47087 15.815 10.4203 16.7644C11.3697 17.7138 12.6573 18.2472 14 18.2472C15.3427 18.2472 16.6303 17.7138 17.5797 16.7644C18.5291 15.815 19.0625 14.5274 19.0625 13.1847Z" fill="black"/>
</svg>
