<svg width="26" height="25" viewBox="0 0 26 25" fill="none" xmlns="http://www.w3.org/2000/svg">
<path d="M21.3984 10.9395H14.5625C13.9409 10.9395 13.3448 10.6925 12.9052 10.253C12.4657 9.81345 12.2188 9.2173 12.2188 8.5957V1.75977C12.2188 1.70797 12.1982 1.65829 12.1615 1.62166C12.1249 1.58503 12.0752 1.56445 12.0234 1.56445H7.53125C6.70245 1.56445 5.90759 1.89369 5.32154 2.47974C4.73549 3.0658 4.40625 3.86065 4.40625 4.68945V20.3145C4.40625 21.1433 4.73549 21.9381 5.32154 22.5242C5.90759 23.1102 6.70245 23.4395 7.53125 23.4395H18.4688C19.2976 23.4395 20.0924 23.1102 20.6785 22.5242C21.2645 21.9381 21.5938 21.1433 21.5938 20.3145V11.1348C21.5938 11.083 21.5732 11.0333 21.5365 10.9967C21.4999 10.96 21.4502 10.9395 21.3984 10.9395Z" fill="black"/>
<path d="M20.9697 9.21053L13.9478 2.18855C13.9341 2.17498 13.9167 2.16574 13.8978 2.16201C13.879 2.15828 13.8594 2.16021 13.8416 2.16757C13.8238 2.17492 13.8086 2.18738 13.7978 2.20336C13.7871 2.21935 13.7813 2.23815 13.7812 2.2574V8.59578C13.7812 8.80298 13.8636 9.0017 14.0101 9.14821C14.1566 9.29472 14.3553 9.37703 14.5625 9.37703H20.9009C20.9201 9.37695 20.9389 9.37118 20.9549 9.36044C20.9709 9.34971 20.9834 9.33449 20.9907 9.31669C20.9981 9.2989 21 9.27933 20.9963 9.26044C20.9925 9.24155 20.9833 9.22418 20.9697 9.21053Z" fill="black"/>
</svg>
