<svg width="448" height="170" viewBox="0 0 448 170" fill="none" xmlns="http://www.w3.org/2000/svg">
<g filter="url(#filter0_d_8092_8927)">
<g clip-path="url(#clip0_8092_8927)">
<rect x="12" y="9.58984" width="424" height="130" rx="40" fill="#0046E2"/>
<mask id="mask0_8092_8927" style="mask-type:alpha" maskUnits="userSpaceOnUse" x="12" y="9" width="424" height="126">
<rect x="12" y="9.58984" width="424" height="125" rx="40" fill="#4318FF"/>
</mask>
<g mask="url(#mask0_8092_8927)">
<path opacity="0.1" d="M242 173.59L363.689 -38.4102H430.384L436 173.59H242Z" fill="url(#paint0_linear_8092_8927)"/>
</g>
<g clip-path="url(#clip1_8092_8927)">
<path d="M389 43.5898C387.9 43.5898 387 44.4898 387 45.5898C387 46.6898 387.9 47.5898 389 47.5898C390.1 47.5898 391 46.6898 391 45.5898C391 44.4898 390.1 43.5898 389 43.5898ZM401 43.5898C399.9 43.5898 399 44.4898 399 45.5898C399 46.6898 399.9 47.5898 401 47.5898C402.1 47.5898 403 46.6898 403 45.5898C403 44.4898 402.1 43.5898 401 43.5898ZM395 43.5898C393.9 43.5898 393 44.4898 393 45.5898C393 46.6898 393.9 47.5898 395 47.5898C396.1 47.5898 397 46.6898 397 45.5898C397 44.4898 396.1 43.5898 395 43.5898Z" fill="white"/>
</g>
<path d="M50.744 50.7898L47.852 46.2418H49.232L52.148 50.7898H50.744ZM48.596 49.7338C47.804 49.7338 47.104 49.5538 46.496 49.1938C45.896 48.8258 45.424 48.3178 45.08 47.6698C44.744 47.0138 44.576 46.2538 44.576 45.3898C44.576 44.5338 44.744 43.7818 45.08 43.1338C45.424 42.4778 45.896 41.9658 46.496 41.5978C47.104 41.2298 47.804 41.0458 48.596 41.0458C49.404 41.0458 50.108 41.2298 50.708 41.5978C51.316 41.9658 51.788 42.4778 52.124 43.1338C52.46 43.7818 52.628 44.5338 52.628 45.3898C52.628 46.2538 52.46 47.0138 52.124 47.6698C51.788 48.3178 51.316 48.8258 50.708 49.1938C50.108 49.5538 49.404 49.7338 48.596 49.7338ZM48.596 48.6658C49.164 48.6658 49.656 48.5338 50.072 48.2698C50.496 48.0058 50.824 47.6298 51.056 47.1418C51.288 46.6538 51.404 46.0698 51.404 45.3898C51.404 44.7098 51.288 44.1258 51.056 43.6378C50.824 43.1498 50.496 42.7778 50.072 42.5218C49.656 42.2578 49.164 42.1258 48.596 42.1258C48.036 42.1258 47.544 42.2578 47.12 42.5218C46.704 42.7778 46.38 43.1498 46.148 43.6378C45.916 44.1258 45.8 44.7098 45.8 45.3898C45.8 46.0698 45.916 46.6538 46.148 47.1418C46.38 47.6298 46.704 48.0058 47.12 48.2698C47.544 48.5338 48.036 48.6658 48.596 48.6658ZM53.8355 49.5898V41.1898H56.6795C57.3435 41.1898 57.8875 41.3018 58.3115 41.5258C58.7355 41.7498 59.0475 42.0498 59.2475 42.4258C59.4555 42.7938 59.5595 43.2138 59.5595 43.6858C59.5595 44.1338 59.4555 44.5498 59.2475 44.9338C59.0475 45.3098 58.7315 45.6138 58.2995 45.8458C57.8675 46.0698 57.3155 46.1818 56.6435 46.1818H55.0355V49.5898H53.8355ZM58.2515 49.5898L56.4395 45.8578H57.7595L59.6435 49.5898H58.2515ZM55.0355 45.2698H56.6075C57.1995 45.2698 57.6315 45.1258 57.9035 44.8378C58.1835 44.5418 58.3235 44.1658 58.3235 43.7098C58.3235 43.2458 58.1875 42.8778 57.9155 42.6058C57.6435 42.3338 57.2035 42.1978 56.5955 42.1978H55.0355V45.2698Z" fill="#E9EDF7"/>
<path d="M68.3764 70.5742H62.777C62.6747 69.8498 62.4659 69.2063 62.1506 68.6438C61.8352 68.0728 61.4304 67.587 60.9361 67.1864C60.4418 66.7859 59.8707 66.479 59.223 66.266C58.5838 66.0529 57.8892 65.9464 57.1392 65.9464C55.7841 65.9464 54.6037 66.283 53.598 66.9563C52.5923 67.6211 51.8125 68.5927 51.2585 69.8711C50.7045 71.141 50.4276 72.6836 50.4276 74.4989C50.4276 76.3654 50.7045 77.9336 51.2585 79.2035C51.821 80.4734 52.6051 81.4322 53.6108 82.0799C54.6165 82.7276 55.7798 83.0515 57.1009 83.0515C57.8423 83.0515 58.5284 82.9535 59.1591 82.7575C59.7983 82.5614 60.3651 82.2759 60.8594 81.9009C61.3537 81.5174 61.7628 81.0529 62.0866 80.5075C62.419 79.962 62.6491 79.3398 62.777 78.641L68.3764 78.6665C68.2315 79.8683 67.8693 81.0273 67.2898 82.1438C66.7188 83.2518 65.9474 84.2447 64.9759 85.1225C64.0128 85.9918 62.8622 86.6822 61.5241 87.1935C60.1946 87.6964 58.6903 87.9478 57.0114 87.9478C54.6761 87.9478 52.5881 87.4194 50.7472 86.3626C48.9148 85.3058 47.4659 83.7759 46.4006 81.7731C45.3438 79.7702 44.8153 77.3455 44.8153 74.4989C44.8153 71.6438 45.3523 69.2148 46.4261 67.212C47.5 65.2092 48.9574 63.6836 50.7983 62.6353C52.6392 61.5785 54.7102 61.0501 57.0114 61.0501C58.5284 61.0501 59.9347 61.2631 61.2301 61.6893C62.5341 62.1154 63.6889 62.7376 64.6946 63.5558C65.7003 64.3654 66.5185 65.3583 67.1491 66.5344C67.7884 67.7106 68.1974 69.0572 68.3764 70.5742ZM71.5236 87.5898V67.9535H76.9696V75.5728H78.5037L83.8475 67.9535H90.2395L83.2978 77.695L90.3162 87.5898H83.8475L79.0023 80.6225H76.9696V87.5898H71.5236ZM97.4968 87.9606C96.244 87.9606 95.1275 87.7433 94.1474 87.3086C93.1672 86.8654 92.3917 86.2134 91.8207 85.3526C91.2582 84.4833 90.9769 83.4009 90.9769 82.1055C90.9769 81.0146 91.1772 80.0984 91.5778 79.3569C91.9783 78.6154 92.5238 78.0188 93.2141 77.5671C93.9045 77.1154 94.6886 76.7745 95.5664 76.5444C96.4528 76.3143 97.3817 76.1523 98.3533 76.0586C99.4954 75.9393 100.416 75.8285 101.115 75.7262C101.814 75.6154 102.321 75.4535 102.636 75.2404C102.951 75.0273 103.109 74.712 103.109 74.2944V74.2177C103.109 73.408 102.853 72.7816 102.342 72.3384C101.839 71.8952 101.123 71.6736 100.194 71.6736C99.2141 71.6736 98.4343 71.891 97.8547 72.3256C97.2752 72.7518 96.8917 73.2887 96.7042 73.9364L91.6672 73.5273C91.9229 72.3342 92.4258 71.3029 93.1758 70.4336C93.9258 69.5558 94.8931 68.8825 96.0778 68.4137C97.2709 67.9364 98.6516 67.6978 100.22 67.6978C101.311 67.6978 102.355 67.8256 103.352 68.0813C104.358 68.337 105.248 68.7333 106.024 69.2702C106.808 69.8072 107.426 70.4975 107.877 71.3413C108.329 72.1765 108.555 73.1779 108.555 74.3455V87.5898H103.39V84.8668H103.237C102.922 85.4805 102.5 86.0217 101.971 86.4904C101.443 86.9506 100.808 87.3129 100.066 87.5771C99.3249 87.8327 98.4684 87.9606 97.4968 87.9606ZM99.0565 84.2021C99.8576 84.2021 100.565 84.0444 101.179 83.729C101.792 83.4052 102.274 82.9705 102.623 82.4251C102.973 81.8796 103.147 81.2617 103.147 80.5714V78.4876C102.977 78.5984 102.743 78.7006 102.444 78.7944C102.154 78.8796 101.826 78.9606 101.46 79.0373C101.093 79.1055 100.727 79.1694 100.36 79.229C99.994 79.2802 99.6616 79.3271 99.3633 79.3697C98.7241 79.4634 98.1658 79.6126 97.6886 79.8171C97.2113 80.0217 96.8405 80.2987 96.5763 80.6481C96.3121 80.989 96.18 81.4151 96.18 81.9265C96.18 82.668 96.4485 83.2347 96.9854 83.6268C97.5309 84.0103 98.2212 84.2021 99.0565 84.2021ZM125.726 75.5984V79.881H115.474V75.5984H125.726ZM117.263 67.9535V87.5898H112.06V67.9535H117.263ZM129.14 67.9535V87.5898H123.975V67.9535H129.14ZM137.848 80.4052L144.918 67.9535H150.287V87.5898H145.097V75.0998L138.053 87.5898H132.645V67.9535H137.848V80.4052ZM153.933 94.9535V67.9535H159.302V71.2518H159.545C159.784 70.7234 160.129 70.1864 160.58 69.641C161.041 69.087 161.637 68.6268 162.37 68.2603C163.112 67.8853 164.032 67.6978 165.132 67.6978C166.563 67.6978 167.884 68.0728 169.095 68.8228C170.305 69.5643 171.272 70.685 171.997 72.185C172.721 73.6765 173.083 75.5472 173.083 77.7972C173.083 79.9876 172.73 81.837 172.022 83.3455C171.323 84.8455 170.369 85.9833 169.159 86.7589C167.957 87.5259 166.61 87.9094 165.119 87.9094C164.062 87.9094 163.163 87.7347 162.421 87.3853C161.688 87.0359 161.088 86.5969 160.619 86.0685C160.15 85.5316 159.792 84.9904 159.545 84.445H159.379V94.9535H153.933ZM159.264 77.7717C159.264 78.9393 159.426 79.9577 159.749 80.8271C160.073 81.6964 160.542 82.3739 161.156 82.8597C161.769 83.337 162.515 83.5756 163.393 83.5756C164.279 83.5756 165.029 83.3327 165.643 82.8469C166.257 82.3526 166.721 81.6708 167.036 80.8015C167.36 79.9237 167.522 78.9137 167.522 77.7717C167.522 76.6381 167.364 75.641 167.049 74.7802C166.734 73.9194 166.269 73.2461 165.656 72.7603C165.042 72.2745 164.288 72.0316 163.393 72.0316C162.507 72.0316 161.757 72.266 161.143 72.7347C160.538 73.2035 160.073 73.8683 159.749 74.729C159.426 75.5898 159.264 76.604 159.264 77.7717ZM184.866 87.9734C182.88 87.9734 181.163 87.5515 179.714 86.7077C178.274 85.8555 177.162 84.6708 176.377 83.1538C175.593 81.6282 175.201 79.8597 175.201 77.8484C175.201 75.82 175.593 74.0472 176.377 72.5302C177.162 71.0046 178.274 69.82 179.714 68.9762C181.163 68.1239 182.88 67.6978 184.866 67.6978C186.852 67.6978 188.565 68.1239 190.005 68.9762C191.454 69.82 192.571 71.0046 193.355 72.5302C194.139 74.0472 194.531 75.82 194.531 77.8484C194.531 79.8597 194.139 81.6282 193.355 83.1538C192.571 84.6708 191.454 85.8555 190.005 86.7077C188.565 87.5515 186.852 87.9734 184.866 87.9734ZM184.892 83.7546C185.795 83.7546 186.549 83.4989 187.154 82.9876C187.76 82.4677 188.216 81.7603 188.522 80.8654C188.838 79.9705 188.995 78.9521 188.995 77.81C188.995 76.668 188.838 75.6495 188.522 74.7546C188.216 73.8597 187.76 73.1523 187.154 72.6325C186.549 72.1126 185.795 71.8526 184.892 71.8526C183.98 71.8526 183.213 72.1126 182.591 72.6325C181.977 73.1523 181.512 73.8597 181.197 74.7546C180.89 75.6495 180.737 76.668 180.737 77.81C180.737 78.9521 180.89 79.9705 181.197 80.8654C181.512 81.7603 181.977 82.4677 182.591 82.9876C183.213 83.4989 183.98 83.7546 184.892 83.7546ZM197.352 87.5898V67.9535H205.726C208.146 67.9535 210.059 68.4137 211.466 69.3342C212.872 70.2546 213.575 71.5629 213.575 73.2589C213.575 74.3242 213.179 75.2106 212.386 75.918C211.594 76.6254 210.494 77.1026 209.088 77.3498C210.264 77.435 211.265 77.7035 212.092 78.1552C212.927 78.5984 213.562 79.1737 213.997 79.881C214.44 80.5884 214.662 81.3725 214.662 82.2333C214.662 83.3498 214.363 84.3086 213.767 85.1097C213.179 85.9109 212.314 86.5245 211.172 86.9506C210.038 87.3768 208.653 87.5898 207.017 87.5898H197.352ZM202.427 83.5117H207.017C207.775 83.5117 208.368 83.3327 208.794 82.9748C209.228 82.6083 209.446 82.1097 209.446 81.479C209.446 80.7802 209.228 80.2305 208.794 79.8299C208.368 79.4293 207.775 79.229 207.017 79.229H202.427V83.5117ZM202.427 76.033H205.841C206.386 76.033 206.851 75.9563 207.234 75.8029C207.626 75.641 207.924 75.4109 208.129 75.1126C208.342 74.8143 208.449 74.4606 208.449 74.0515C208.449 73.4464 208.206 72.9734 207.72 72.6325C207.234 72.2915 206.569 72.1211 205.726 72.1211H202.427V76.033ZM222.974 87.9606C221.721 87.9606 220.604 87.7433 219.624 87.3086C218.644 86.8654 217.869 86.2134 217.298 85.3526C216.735 84.4833 216.454 83.4009 216.454 82.1055C216.454 81.0146 216.654 80.0984 217.055 79.3569C217.455 78.6154 218.001 78.0188 218.691 77.5671C219.381 77.1154 220.165 76.7745 221.043 76.5444C221.93 76.3143 222.859 76.1523 223.83 76.0586C224.972 75.9393 225.893 75.8285 226.592 75.7262C227.29 75.6154 227.798 75.4535 228.113 75.2404C228.428 75.0273 228.586 74.712 228.586 74.2944V74.2177C228.586 73.408 228.33 72.7816 227.819 72.3384C227.316 71.8952 226.6 71.6736 225.671 71.6736C224.691 71.6736 223.911 71.891 223.332 72.3256C222.752 72.7518 222.369 73.2887 222.181 73.9364L217.144 73.5273C217.4 72.3342 217.903 71.3029 218.653 70.4336C219.403 69.5558 220.37 68.8825 221.555 68.4137C222.748 67.9364 224.129 67.6978 225.697 67.6978C226.788 67.6978 227.832 67.8256 228.829 68.0813C229.834 68.337 230.725 68.7333 231.501 69.2702C232.285 69.8072 232.903 70.4975 233.354 71.3413C233.806 72.1765 234.032 73.1779 234.032 74.3455V87.5898H228.867V84.8668H228.714C228.398 85.4805 227.977 86.0217 227.448 86.4904C226.92 86.9506 226.285 87.3129 225.543 87.5771C224.802 87.8327 223.945 87.9606 222.974 87.9606ZM224.533 84.2021C225.334 84.2021 226.042 84.0444 226.655 83.729C227.269 83.4052 227.751 82.9705 228.1 82.4251C228.45 81.8796 228.624 81.2617 228.624 80.5714V78.4876C228.454 78.5984 228.219 78.7006 227.921 78.7944C227.631 78.8796 227.303 78.9606 226.937 79.0373C226.57 79.1055 226.204 79.1694 225.837 79.229C225.471 79.2802 225.138 79.3271 224.84 79.3697C224.201 79.4634 223.643 79.6126 223.165 79.8171C222.688 80.0217 222.317 80.2987 222.053 80.6481C221.789 80.989 221.657 81.4151 221.657 81.9265C221.657 82.668 221.925 83.2347 222.462 83.6268C223.008 84.0103 223.698 84.2021 224.533 84.2021ZM251.203 75.5984V79.881H240.95V75.5984H251.203ZM242.74 67.9535V87.5898H237.537V67.9535H242.74ZM254.617 67.9535V87.5898H249.452V67.9535H254.617ZM263.325 80.4052L270.394 67.9535H275.764V87.5898H270.573V75.0998L263.529 87.5898H258.122V67.9535H263.325V80.4052ZM288.358 87.9734C286.339 87.9734 284.6 87.5643 283.143 86.7461C281.694 85.9194 280.577 84.7518 279.793 83.2433C279.009 81.7262 278.617 79.9322 278.617 77.8611C278.617 75.8413 279.009 74.0685 279.793 72.543C280.577 71.0174 281.681 69.8285 283.104 68.9762C284.536 68.1239 286.215 67.6978 288.141 67.6978C289.437 67.6978 290.643 67.9066 291.759 68.3242C292.884 68.7333 293.864 69.3512 294.699 70.1779C295.543 71.0046 296.199 72.0444 296.668 73.2972C297.137 74.5415 297.371 75.9989 297.371 77.6694V79.1651H280.79V75.7901H292.245C292.245 75.006 292.074 74.3114 291.733 73.7063C291.393 73.1012 290.919 72.6282 290.314 72.2873C289.718 71.9379 289.023 71.7631 288.231 71.7631C287.404 71.7631 286.671 71.9549 286.032 72.3384C285.401 72.7134 284.907 73.2205 284.549 73.8597C284.191 74.4904 284.008 75.1935 283.999 75.9691V79.1779C283.999 80.1495 284.178 80.989 284.536 81.6964C284.902 82.4038 285.418 82.9492 286.083 83.3327C286.748 83.7163 287.536 83.908 288.448 83.908C289.053 83.908 289.607 83.8228 290.11 83.6523C290.613 83.4819 291.043 83.2262 291.401 82.8853C291.759 82.5444 292.032 82.1268 292.219 81.6325L297.256 81.9648C297 83.1751 296.476 84.2319 295.684 85.1353C294.9 86.0302 293.885 86.729 292.641 87.2319C291.405 87.7262 289.978 87.9734 288.358 87.9734Z" fill="white"/>
<path d="M344 77.7898C344.702 81.3898 347.5 88.0898 354 87.5898C360.5 87.0898 361.279 70.5898 372.657 70.5898C384.036 70.5898 384.036 89.6184 403 73.1613" stroke="white" stroke-width="2" stroke-linecap="round" stroke-linejoin="round"/>
</g>
</g>
<defs>
<filter id="filter0_d_8092_8927" x="-16" y="0.589844" width="480" height="169" filterUnits="userSpaceOnUse" color-interpolation-filters="sRGB">
<feFlood flood-opacity="0" result="BackgroundImageFix"/>
<feColorMatrix in="SourceAlpha" type="matrix" values="0 0 0 0 0 0 0 0 0 0 0 0 0 0 0 0 0 0 127 0" result="hardAlpha"/>
<feOffset dy="18"/>
<feGaussianBlur stdDeviation="20"/>
<feColorMatrix type="matrix" values="0 0 0 0 0.439216 0 0 0 0 0.564706 0 0 0 0 0.690196 0 0 0 0.12 0"/>
<feBlend mode="normal" in2="BackgroundImageFix" result="effect1_dropShadow_8092_8927"/>
<feBlend mode="normal" in="SourceGraphic" in2="effect1_dropShadow_8092_8927" result="shape"/>
</filter>
<linearGradient id="paint0_linear_8092_8927" x1="368.954" y1="-69.1897" x2="342.438" y2="157.232" gradientUnits="userSpaceOnUse">
<stop stop-color="white"/>
<stop offset="0.0001" stop-color="white"/>
<stop offset="1" stop-color="white" stop-opacity="0"/>
</linearGradient>
<clipPath id="clip0_8092_8927">
<rect x="24" y="22.5898" width="400" height="89" rx="17" fill="white"/>
</clipPath>
<clipPath id="clip1_8092_8927">
<rect width="24" height="24" fill="white" transform="translate(383 33.5898)"/>
</clipPath>
</defs>
</svg>
