<svg width="448" height="168" viewBox="0 0 448 168" fill="none" xmlns="http://www.w3.org/2000/svg">
<g filter="url(#filter0_d_8092_8911)">
<g clip-path="url(#clip0_8092_8911)">
<rect x="12" y="7.58984" width="424" height="130" rx="40" fill="#0046E2"/>
<mask id="mask0_8092_8911" style="mask-type:alpha" maskUnits="userSpaceOnUse" x="12" y="7" width="424" height="126">
<rect x="12" y="7.58984" width="424" height="125" rx="40" fill="#4318FF"/>
</mask>
<g mask="url(#mask0_8092_8911)">
<path opacity="0.1" d="M242 171.59L363.689 -40.4102H430.384L436 171.59H242Z" fill="url(#paint0_linear_8092_8911)"/>
</g>
<g clip-path="url(#clip1_8092_8911)">
<path d="M389 41.5898C387.9 41.5898 387 42.4898 387 43.5898C387 44.6898 387.9 45.5898 389 45.5898C390.1 45.5898 391 44.6898 391 43.5898C391 42.4898 390.1 41.5898 389 41.5898ZM401 41.5898C399.9 41.5898 399 42.4898 399 43.5898C399 44.6898 399.9 45.5898 401 45.5898C402.1 45.5898 403 44.6898 403 43.5898C403 42.4898 402.1 41.5898 401 41.5898ZM395 41.5898C393.9 41.5898 393 42.4898 393 43.5898C393 44.6898 393.9 45.5898 395 45.5898C396.1 45.5898 397 44.6898 397 43.5898C397 42.4898 396.1 41.5898 395 41.5898Z" fill="white"/>
</g>
<path d="M59.4531 80.6808V79.3001C59.4531 78.2518 59.6747 77.2887 60.1179 76.4109C60.5696 75.5245 61.2216 74.8171 62.0739 74.2887C62.9347 73.7518 63.983 73.4833 65.2188 73.4833C66.4716 73.4833 67.5241 73.7475 68.3764 74.2759C69.2372 74.8043 69.8849 75.5117 70.3196 76.3981C70.7628 77.2759 70.9844 78.2433 70.9844 79.3001V80.6808C70.9844 81.729 70.7628 82.6964 70.3196 83.5827C69.8764 84.4606 69.2244 85.1637 68.3636 85.6921C67.5028 86.229 66.4545 86.4975 65.2188 86.4975C63.9659 86.4975 62.9134 86.229 62.0611 85.6921C61.2088 85.1637 60.5611 84.4606 60.1179 83.5827C59.6747 82.6964 59.4531 81.729 59.4531 80.6808ZM63.1733 79.3001V80.6808C63.1733 81.2859 63.3182 81.8569 63.608 82.3938C63.9063 82.9308 64.4432 83.1992 65.2188 83.1992C65.9943 83.1992 66.5227 82.935 66.804 82.4066C67.0938 81.8782 67.2386 81.3029 67.2386 80.6808V79.3001C67.2386 78.6779 67.1023 78.0984 66.8295 77.5614C66.5568 77.0245 66.0199 76.756 65.2188 76.756C64.4517 76.756 63.919 77.0245 63.6207 77.5614C63.3224 78.0984 63.1733 78.6779 63.1733 79.3001ZM46.017 65.6978V64.3171C46.017 63.2603 46.2429 62.293 46.6946 61.4151C47.1463 60.5288 47.7983 59.8214 48.6506 59.293C49.5114 58.7646 50.5511 58.5004 51.7699 58.5004C53.0313 58.5004 54.0881 58.7646 54.9403 59.293C55.7926 59.8214 56.4403 60.5288 56.8835 61.4151C57.3267 62.293 57.5483 63.2603 57.5483 64.3171V65.6978C57.5483 66.7546 57.3224 67.7219 56.8707 68.5998C56.4276 69.4776 55.7756 70.1808 54.9148 70.7092C54.0625 71.229 53.0142 71.489 51.7699 71.489C50.5256 71.489 49.473 71.2248 48.6122 70.6964C47.7599 70.1594 47.1122 69.4563 46.669 68.587C46.2344 67.7092 46.017 66.7461 46.017 65.6978ZM49.7628 64.3171V65.6978C49.7628 66.32 49.9077 66.8952 50.1974 67.4236C50.4957 67.9521 51.0199 68.2163 51.7699 68.2163C52.554 68.2163 53.0866 67.9521 53.3679 67.4236C53.6577 66.8952 53.8026 66.32 53.8026 65.6978V64.3171C53.8026 63.695 53.6662 63.1154 53.3935 62.5785C53.1207 62.0415 52.5795 61.7731 51.7699 61.7731C51.0114 61.7731 50.4872 62.0458 50.1974 62.5913C49.9077 63.1367 49.7628 63.712 49.7628 64.3171ZM47.7045 85.5898L65.7045 59.408H69.054L51.054 85.5898H47.7045ZM106.206 68.5742H100.607C100.504 67.8498 100.295 67.2063 99.9801 66.6438C99.6648 66.0728 99.2599 65.587 98.7656 65.1864C98.2713 64.7859 97.7003 64.479 97.0525 64.266C96.4133 64.0529 95.7187 63.9464 94.9687 63.9464C93.6136 63.9464 92.4332 64.283 91.4275 64.9563C90.4219 65.6211 89.642 66.5927 89.0881 67.8711C88.5341 69.141 88.2571 70.6836 88.2571 72.4989C88.2571 74.3654 88.5341 75.9336 89.0881 77.2035C89.6506 78.4734 90.4346 79.4322 91.4403 80.0799C92.446 80.7276 93.6094 81.0515 94.9304 81.0515C95.6719 81.0515 96.3579 80.9535 96.9886 80.7575C97.6278 80.5614 98.1946 80.2759 98.6889 79.9009C99.1832 79.5174 99.5923 79.0529 99.9162 78.5075C100.249 77.962 100.479 77.3398 100.607 76.641L106.206 76.6665C106.061 77.8683 105.699 79.0273 105.119 80.1438C104.548 81.2518 103.777 82.2447 102.805 83.1225C101.842 83.9918 100.692 84.6822 99.3537 85.1935C98.0241 85.6964 96.5199 85.9478 94.8409 85.9478C92.5057 85.9478 90.4176 85.4194 88.5767 84.3626C86.7443 83.3058 85.2954 81.7759 84.2301 79.7731C83.1733 77.7702 82.6449 75.3455 82.6449 72.4989C82.6449 69.6438 83.1818 67.2148 84.2557 65.212C85.3295 63.2092 86.7869 61.6836 88.6278 60.6353C90.4687 59.5785 92.5398 59.0501 94.8409 59.0501C96.3579 59.0501 97.7642 59.2631 99.0596 59.6893C100.364 60.1154 101.518 60.7376 102.524 61.5558C103.53 62.3654 104.348 63.3583 104.979 64.5344C105.618 65.7106 106.027 67.0572 106.206 68.5742ZM118.225 85.9734C116.239 85.9734 114.522 85.5515 113.073 84.7077C111.633 83.8555 110.521 82.6708 109.737 81.1538C108.953 79.6282 108.561 77.8597 108.561 75.8484C108.561 73.82 108.953 72.0472 109.737 70.5302C110.521 69.0046 111.633 67.82 113.073 66.9762C114.522 66.1239 116.239 65.6978 118.225 65.6978C120.211 65.6978 121.924 66.1239 123.364 66.9762C124.813 67.82 125.93 69.0046 126.714 70.5302C127.498 72.0472 127.89 73.82 127.89 75.8484C127.89 77.8597 127.498 79.6282 126.714 81.1538C125.93 82.6708 124.813 83.8555 123.364 84.7077C121.924 85.5515 120.211 85.9734 118.225 85.9734ZM118.251 81.7546C119.154 81.7546 119.909 81.4989 120.514 80.9876C121.119 80.4677 121.575 79.7603 121.882 78.8654C122.197 77.9705 122.355 76.9521 122.355 75.81C122.355 74.668 122.197 73.6495 121.882 72.7546C121.575 71.8597 121.119 71.1523 120.514 70.6325C119.909 70.1126 119.154 69.8526 118.251 69.8526C117.339 69.8526 116.572 70.1126 115.95 70.6325C115.336 71.1523 114.872 71.8597 114.556 72.7546C114.249 73.6495 114.096 74.668 114.096 75.81C114.096 76.9521 114.249 77.9705 114.556 78.8654C114.872 79.7603 115.336 80.4677 115.95 80.9876C116.572 81.4989 117.339 81.7546 118.251 81.7546ZM130.711 85.5898V65.9535H139.085C141.505 65.9535 143.419 66.4137 144.825 67.3342C146.231 68.2546 146.934 69.5629 146.934 71.2589C146.934 72.3242 146.538 73.2106 145.745 73.918C144.953 74.6254 143.853 75.1026 142.447 75.3498C143.623 75.435 144.625 75.7035 145.451 76.1552C146.287 76.5984 146.921 77.1737 147.356 77.881C147.799 78.5884 148.021 79.3725 148.021 80.2333C148.021 81.3498 147.723 82.3086 147.126 83.1097C146.538 83.9109 145.673 84.5245 144.531 84.9506C143.397 85.3768 142.012 85.5898 140.376 85.5898H130.711ZM135.787 81.5117H140.376C141.135 81.5117 141.727 81.3327 142.153 80.9748C142.588 80.6083 142.805 80.1097 142.805 79.479C142.805 78.7802 142.588 78.2305 142.153 77.8299C141.727 77.4293 141.135 77.229 140.376 77.229H135.787V81.5117ZM135.787 74.033H139.2C139.745 74.033 140.21 73.9563 140.593 73.8029C140.985 73.641 141.284 73.4109 141.488 73.1126C141.701 72.8143 141.808 72.4606 141.808 72.0515C141.808 71.4464 141.565 70.9734 141.079 70.6325C140.593 70.2915 139.929 70.1211 139.085 70.1211H135.787V74.033ZM150.733 85.5898V65.9535H167.902V85.5898H162.699V70.2361H155.873V85.5898H150.733ZM177.129 85.9606C175.876 85.9606 174.759 85.7433 173.779 85.3086C172.799 84.8654 172.023 84.2134 171.452 83.3526C170.89 82.4833 170.609 81.4009 170.609 80.1055C170.609 79.0146 170.809 78.0984 171.209 77.3569C171.61 76.6154 172.155 76.0188 172.846 75.5671C173.536 75.1154 174.32 74.7745 175.198 74.5444C176.084 74.3143 177.013 74.1523 177.985 74.0586C179.127 73.9393 180.048 73.8285 180.746 73.7262C181.445 73.6154 181.952 73.4535 182.268 73.2404C182.583 73.0273 182.741 72.712 182.741 72.2944V72.2177C182.741 71.408 182.485 70.7816 181.974 70.3384C181.471 69.8952 180.755 69.6736 179.826 69.6736C178.846 69.6736 178.066 69.891 177.486 70.3256C176.907 70.7518 176.523 71.2887 176.336 71.9364L171.299 71.5273C171.555 70.3342 172.057 69.3029 172.807 68.4336C173.557 67.5558 174.525 66.8825 175.709 66.4137C176.903 65.9364 178.283 65.6978 179.852 65.6978C180.942 65.6978 181.986 65.8256 182.984 66.0813C183.989 66.337 184.88 66.7333 185.655 67.2702C186.44 67.8072 187.057 68.4975 187.509 69.3413C187.961 70.1765 188.187 71.1779 188.187 72.3455V85.5898H183.022V82.8668H182.869C182.553 83.4805 182.131 84.0217 181.603 84.4904C181.075 84.9506 180.44 85.3129 179.698 85.5771C178.957 85.8327 178.1 85.9606 177.129 85.9606ZM178.688 82.2021C179.489 82.2021 180.197 82.0444 180.81 81.729C181.424 81.4052 181.905 80.9705 182.255 80.4251C182.604 79.8796 182.779 79.2617 182.779 78.5714V76.4876C182.609 76.5984 182.374 76.7006 182.076 76.7944C181.786 76.8796 181.458 76.9606 181.092 77.0373C180.725 77.1055 180.359 77.1694 179.992 77.229C179.626 77.2802 179.293 77.3271 178.995 77.3697C178.356 77.4634 177.798 77.6126 177.32 77.8171C176.843 78.0217 176.472 78.2987 176.208 78.6481C175.944 78.989 175.812 79.4151 175.812 79.9265C175.812 80.668 176.08 81.2347 176.617 81.6268C177.163 82.0103 177.853 82.2021 178.688 82.2021ZM190.158 91.3427V81.2688H191.666C192.101 80.9961 192.45 80.5614 192.715 79.9648C192.987 79.3683 193.209 78.6651 193.379 77.8555C193.558 77.0458 193.695 76.1722 193.788 75.2347C193.891 74.2887 193.98 73.3342 194.057 72.3711L194.568 65.9535H209.628V81.2688H212.671V91.3427H207.48V85.5898H195.476V91.3427H190.158ZM197.087 81.2688H204.489V70.1467H199.196L198.992 72.3711C198.847 74.4677 198.638 76.2489 198.365 77.7148C198.092 79.1722 197.666 80.3569 197.087 81.2688ZM224.073 85.9734C222.053 85.9734 220.315 85.5643 218.857 84.7461C217.408 83.9194 216.292 82.7518 215.508 81.2433C214.724 79.7262 214.332 77.9322 214.332 75.8611C214.332 73.8413 214.724 72.0685 215.508 70.543C216.292 69.0174 217.396 67.8285 218.819 66.9762C220.251 66.1239 221.93 65.6978 223.856 65.6978C225.151 65.6978 226.357 65.9066 227.474 66.3242C228.599 66.7333 229.579 67.3512 230.414 68.1779C231.258 69.0046 231.914 70.0444 232.383 71.2972C232.852 72.5415 233.086 73.9989 233.086 75.6694V77.1651H216.505V73.7901H227.959C227.959 73.006 227.789 72.3114 227.448 71.7063C227.107 71.1012 226.634 70.6282 226.029 70.2873C225.432 69.9379 224.738 69.7631 223.945 69.7631C223.119 69.7631 222.386 69.9549 221.746 70.3384C221.116 70.7134 220.621 71.2205 220.263 71.8597C219.905 72.4904 219.722 73.1935 219.714 73.9691V77.1779C219.714 78.1495 219.893 78.989 220.251 79.6964C220.617 80.4038 221.133 80.9492 221.798 81.3327C222.462 81.7163 223.251 81.908 224.163 81.908C224.768 81.908 225.322 81.8228 225.825 81.6523C226.327 81.4819 226.758 81.2262 227.116 80.8853C227.474 80.5444 227.746 80.1268 227.934 79.6325L232.971 79.9648C232.715 81.1751 232.191 82.2319 231.398 83.1353C230.614 84.0302 229.6 84.729 228.356 85.2319C227.12 85.7262 225.692 85.9734 224.073 85.9734ZM249.586 73.5984V77.881H239.333V73.5984H249.586ZM241.123 65.9535V85.5898H235.92V65.9535H241.123ZM252.999 65.9535V85.5898H247.835V65.9535H252.999ZM261.708 78.4052L268.777 65.9535H274.147V85.5898H268.956V73.0998L261.912 85.5898H256.505V65.9535H261.708V78.4052ZM289.298 85.5898V70.2234H285.616C284.619 70.2234 283.861 70.4535 283.341 70.9137C282.821 71.3739 282.565 71.9194 282.574 72.5501C282.565 73.1893 282.812 73.7305 283.315 74.1736C283.826 74.6083 284.576 74.8256 285.565 74.8256H291.113V78.5075H285.565C283.886 78.5075 282.433 78.2518 281.206 77.7404C279.978 77.229 279.032 76.5174 278.368 75.6055C277.703 74.685 277.375 73.6154 277.383 72.3967C277.375 71.1183 277.703 69.9975 278.368 69.0344C279.032 68.0629 279.983 67.3086 281.218 66.7717C282.463 66.2262 283.929 65.9535 285.616 65.9535H294.373V85.5898H289.298ZM276.821 85.5898L282.28 75.3626H287.483L282.037 85.5898H276.821Z" fill="white"/>
<path d="M344 75.7898C344.702 79.3898 347.5 86.0898 354 85.5898C360.5 85.0898 361.279 68.5898 372.657 68.5898C384.036 68.5898 384.036 87.6184 403 71.1613" stroke="white" stroke-width="2" stroke-linecap="round" stroke-linejoin="round"/>
</g>
</g>
<defs>
<filter id="filter0_d_8092_8911" x="-16" y="-1.41016" width="480" height="169" filterUnits="userSpaceOnUse" color-interpolation-filters="sRGB">
<feFlood flood-opacity="0" result="BackgroundImageFix"/>
<feColorMatrix in="SourceAlpha" type="matrix" values="0 0 0 0 0 0 0 0 0 0 0 0 0 0 0 0 0 0 127 0" result="hardAlpha"/>
<feOffset dy="18"/>
<feGaussianBlur stdDeviation="20"/>
<feColorMatrix type="matrix" values="0 0 0 0 0.439216 0 0 0 0 0.564706 0 0 0 0 0.690196 0 0 0 0.12 0"/>
<feBlend mode="normal" in2="BackgroundImageFix" result="effect1_dropShadow_8092_8911"/>
<feBlend mode="normal" in="SourceGraphic" in2="effect1_dropShadow_8092_8911" result="shape"/>
</filter>
<linearGradient id="paint0_linear_8092_8911" x1="368.954" y1="-71.1897" x2="342.438" y2="155.232" gradientUnits="userSpaceOnUse">
<stop stop-color="white"/>
<stop offset="0.0001" stop-color="white"/>
<stop offset="1" stop-color="white" stop-opacity="0"/>
</linearGradient>
<clipPath id="clip0_8092_8911">
<rect x="24" y="20.5898" width="400" height="89" rx="17" fill="white"/>
</clipPath>
<clipPath id="clip1_8092_8911">
<rect width="24" height="24" fill="white" transform="translate(383 31.5898)"/>
</clipPath>
</defs>
</svg>
